<?xml version="1.0" standalone="no"?>
<!DOCTYPE svg PUBLIC "-//W3C//DTD SVG 20010904//EN"
 "http://www.w3.org/TR/2001/REC-SVG-20010904/DTD/svg10.dtd">
<svg version="1.0" xmlns="http://www.w3.org/2000/svg"
 width="357.000000pt" height="205.000000pt" viewBox="0 0 357.000000 205.000000"
 preserveAspectRatio="xMidYMid meet">

<g transform="translate(0.000000,205.000000) scale(0.100000,-0.100000)"
fill="#000000" stroke="none">
<path d="M1173 1638 c-10 -17 -13 -21 -127 -240 -54 -104 -96 -188 -94 -188 2
0 42 14 87 30 46 17 86 29 88 26 7 -6 -1 -20 -196 -335 -97 -157 -187 -303
-200 -324 l-23 -37 36 -15 c24 -10 70 -15 144 -15 l108 0 38 -39 39 -40 108
-3 c60 -2 109 -1 109 0 0 2 -18 25 -41 50 l-40 46 48 24 c117 59 136 97 168
342 68 530 68 522 55 578 -15 69 -67 124 -133 140 -62 16 -164 15 -174 0z"/>
<path d="M1566 1623 c-3 -15 -8 -52 -11 -80 l-7 -53 251 0 c238 0 252 -1 271
-20 23 -23 25 -57 9 -163 -22 -151 -26 -154 -235 -159 -181 -3 -219 -15 -293
-89 -53 -54 -74 -115 -95 -284 -10 -77 -21 -161 -25 -188 l-8 -47 716 2 716 3
50 25 c27 13 67 42 88 63 66 66 77 102 112 377 9 69 23 175 32 235 23 161 22
251 -4 300 -52 99 -71 104 -440 105 -236 0 -303 -3 -303 -12 0 -7 -18 -148
-40 -312 -22 -165 -40 -305 -40 -313 0 -18 150 -19 151 0 0 6 15 116 32 242
l32 230 217 3 216 2 21 -26 c25 -32 26 -66 7 -206 -8 -57 -22 -159 -31 -228
-33 -262 -39 -280 -94 -317 l-34 -23 -608 0 c-334 0 -610 3 -613 8 -7 11 23
221 34 243 22 40 49 47 211 51 145 4 159 6 212 31 65 33 129 99 145 154 19 64
44 272 37 306 -12 57 -53 116 -98 140 -40 21 -55 22 -309 25 l-266 3 -6 -28z"/>
<path d="M733 394 c-8 -4 -13 -25 -13 -54 0 -49 9 -63 46 -72 30 -7 43 24 35
82 -5 39 -9 45 -31 47 -14 1 -31 -1 -37 -3z m57 -60 c0 -44 -1 -45 -27 -42
-22 2 -29 9 -31 31 -5 42 4 57 33 57 23 0 25 -3 25 -46z"/>
<path d="M1393 375 c-6 -14 -7 -25 -2 -25 5 0 9 -13 9 -30 0 -26 -4 -30 -26
-30 -24 0 -26 3 -22 35 2 19 0 35 -4 35 -4 0 -8 -18 -8 -39 0 -32 4 -41 21
-46 34 -11 51 14 47 73 -3 48 -4 50 -15 27z"/>
<path d="M1590 340 c0 -66 9 -77 56 -66 24 6 25 10 22 64 l-3 57 -37 3 -38 3
0 -61z m70 -5 c0 -43 -1 -45 -30 -45 -29 0 -30 2 -30 45 0 43 1 45 30 45 29 0
30 -2 30 -45z"/>
<path d="M2542 338 c3 -59 4 -63 29 -66 36 -4 51 18 47 75 -3 48 -3 48 -41 51
l-38 3 3 -63z m68 -3 c0 -43 -1 -45 -30 -45 -29 0 -30 2 -30 45 0 43 1 45 30
45 29 0 30 -2 30 -45z"/>
<path d="M2973 335 c0 -38 2 -53 4 -32 2 20 2 52 0 70 -2 17 -4 1 -4 -38z"/>
<path d="M1100 380 c-1 -8 -2 -32 -1 -52 3 -35 1 -38 -24 -38 -25 0 -27 3 -23
35 2 19 0 35 -4 35 -4 0 -8 -18 -8 -39 0 -32 4 -41 21 -46 34 -11 51 14 46 71
-2 27 -5 42 -7 34z"/>
<path d="M1950 344 c0 -57 16 -80 50 -69 16 5 20 15 20 46 0 21 -4 39 -8 39
-4 0 -6 -16 -4 -35 4 -32 2 -35 -23 -35 -26 0 -27 2 -22 39 2 21 1 45 -4 52
-6 9 -9 -4 -9 -37z"/>
<path d="M2832 335 l1 -60 7 45 c4 25 4 52 -1 60 -5 9 -8 -8 -7 -45z"/>
<path d="M2202 358 c-16 -16 -15 -59 2 -81 13 -17 14 -17 33 0 10 10 13 14 6
9 -22 -15 -43 2 -43 34 0 36 22 49 48 29 15 -13 16 -12 3 4 -16 20 -32 22 -49
5z"/>
<path d="M833 326 c2 -46 26 -68 55 -50 11 7 18 25 19 50 l1 39 -6 -35 c-6
-29 -11 -35 -32 -35 -21 0 -26 6 -32 35 l-6 35 1 -39z"/>
<path d="M994 352 c5 -8 -1 -12 -17 -12 -33 0 -54 -26 -40 -48 13 -22 40 -27
58 -12 18 15 20 66 3 76 -7 4 -8 3 -4 -4z m4 -45 c3 -12 -3 -17 -21 -17 -31 0
-40 10 -25 27 15 18 42 12 46 -10z"/>
<path d="M1140 320 c0 -22 2 -40 4 -40 2 0 6 18 8 40 2 22 0 40 -4 40 -5 0 -8
-18 -8 -40z"/>
<path d="M1184 346 c-17 -44 20 -91 54 -70 22 14 24 75 2 82 -12 4 -13 2 -2
-9 6 -7 12 -23 12 -36 0 -18 -6 -23 -25 -23 -30 0 -43 25 -26 51 7 12 8 19 1
19 -6 0 -13 -6 -16 -14z"/>
<path d="M1440 321 c0 -26 5 -41 16 -45 24 -9 54 -7 54 4 0 6 -13 10 -30 10
-16 0 -30 4 -30 9 0 5 14 14 30 21 28 12 42 40 20 40 -5 0 -10 -6 -10 -14 0
-8 -7 -17 -16 -20 -24 -9 -27 -8 -21 14 3 11 1 20 -4 20 -5 0 -9 -18 -9 -39z"/>
<path d="M1703 320 c0 -25 2 -35 4 -22 2 12 2 32 0 45 -2 12 -4 2 -4 -23z"/>
<path d="M1740 341 c0 -12 8 -21 22 -23 32 -5 35 -28 4 -28 -14 0 -26 -4 -26
-10 0 -12 30 -13 48 -1 21 13 10 46 -16 49 -16 2 -22 8 -18 18 3 8 1 14 -4 14
-6 0 -10 -9 -10 -19z"/>
<path d="M1870 320 c0 -22 2 -40 4 -40 2 0 6 18 8 40 2 22 0 40 -4 40 -5 0 -8
-18 -8 -40z"/>
<path d="M1913 320 c0 -25 2 -35 4 -22 2 12 2 32 0 45 -2 12 -4 2 -4 -23z"/>
<path d="M2052 329 c-2 -47 18 -67 53 -51 21 10 25 18 24 49 l-2 38 -6 -35
c-5 -29 -11 -36 -33 -38 -24 -3 -27 0 -31 35 l-4 38 -1 -36z"/>
<path d="M2153 320 c0 -25 2 -35 4 -22 2 12 2 32 0 45 -2 12 -4 2 -4 -23z"/>
<path d="M2340 352 c0 -7 -8 -12 -19 -12 -28 0 -47 -28 -34 -48 25 -40 75 -19
69 29 -3 29 -16 53 -16 31z m3 -36 c7 -19 -1 -26 -30 -26 -22 0 -31 19 -16 33
11 12 41 7 46 -7z"/>
<path d="M2384 346 c-17 -44 20 -91 54 -70 20 13 24 76 4 80 -7 1 -8 0 -2 -3
5 -2 10 -18 10 -34 0 -26 -4 -29 -30 -29 -26 0 -30 3 -30 29 0 16 6 32 13 34
9 4 9 6 -1 6 -7 1 -15 -5 -18 -13z"/>
<path d="M2653 320 c0 -25 2 -35 4 -22 2 12 2 32 0 45 -2 12 -4 2 -4 -23z"/>
<path d="M2690 320 c0 -28 4 -40 15 -41 35 -3 40 -5 38 -17 -2 -7 2 -12 7 -12
6 0 10 25 10 55 0 30 -4 55 -8 55 -4 0 -6 -16 -4 -35 4 -32 2 -35 -23 -35 -25
0 -27 3 -23 35 2 19 0 35 -4 35 -4 0 -8 -18 -8 -40z"/>
<path d="M2793 320 c0 -25 2 -35 4 -22 2 12 2 32 0 45 -2 12 -4 2 -4 -23z"/>
<path d="M2924 351 c3 -5 -8 -11 -24 -15 -23 -4 -30 -11 -30 -30 0 -26 22 -40
51 -31 14 5 19 16 19 46 0 21 -5 39 -11 39 -5 0 -8 -4 -5 -9z m4 -44 c3 -12
-3 -17 -22 -17 -25 0 -35 18 -19 34 12 12 38 2 41 -17z"/>
</g>
</svg>
